<svg id="Layer_1" data-name="Layer 1" xmlns="http://www.w3.org/2000/svg" viewBox="0 0 30.65 38"><defs><style>.cls-1{fill:#fff;}</style></defs><title>account</title><path class="cls-1" d="M726.13,1479.34a10.16,10.16,0,1,0-10.94,0,15.35,15.35,0,0,0-9.86,14.31,5,5,0,0,0,5,5H731a5,5,0,0,0,5-5A15.36,15.36,0,0,0,726.13,1479.34Zm-13-8.55a7.53,7.53,0,1,1,7.53,7.54A7.54,7.54,0,0,1,713.13,1470.79ZM731,1496H710.32a2.37,2.37,0,0,1-2.36-2.37,12.7,12.7,0,0,1,25.4,0A2.37,2.37,0,0,1,731,1496Z" transform="translate(-705.33 -1460.64)"/></svg>