<svg id="Layer_1" data-name="Layer 1" xmlns="http://www.w3.org/2000/svg" viewBox="0 0 71.33 71.34"><defs><style>.cls-1{fill:#4b4d4f;}</style></defs><title>admin</title><path class="cls-1" d="M698.43,1480.35a21.23,21.23,0,1,0,21.23-21.23A21.25,21.25,0,0,0,698.43,1480.35Zm36-1.3a14.85,14.85,0,1,1-16.08-13.49A14.85,14.85,0,0,1,734.45,1479.05Z" transform="translate(-683.99 -1444.68)"/><path class="cls-1" d="M748.77,1492.08l3.5-.13a2.18,2.18,0,0,0,1.88-1.5l1.15-5.56a2.16,2.16,0,0,0-1.12-2.12l-3.16-1.53a2.66,2.66,0,0,1-1.36-2.13s0-.41-.08-1.37l0-.33c0-.36.48-1,1.17-1.45l3-1.88a2.16,2.16,0,0,0,.88-2.23l-1.76-5.39a2.19,2.19,0,0,0-2-1.28l-3.52.26a2.5,2.5,0,0,1-2.15-1c-.37-.61-1.13-2.72-.75-3.44l1.64-3.11a2.15,2.15,0,0,0-.36-2.37l-4.23-3.78a2.15,2.15,0,0,0-2.39-.09l-2.92,2a2.49,2.49,0,0,1-2.35.22c-.62-.34-2.34-1.8-2.37-2.61l-.14-3.51a2.16,2.16,0,0,0-1.49-1.88l-5.56-1.16a2.16,2.16,0,0,0-2.11,1.12l-1.54,3.17a2.64,2.64,0,0,1-2.13,1.36s-.41,0-1.37.09l-.33,0c-.36,0-1-.49-1.45-1.18l-1.88-3a2.16,2.16,0,0,0-2.23-.88l-5.39,1.76a2.19,2.19,0,0,0-1.28,2l.26,3.52a2.53,2.53,0,0,1-1,2.16c-.61.36-2.72,1.12-3.44.74l-3.11-1.63a2.15,2.15,0,0,0-2.37.35l-3.78,4.23a2.16,2.16,0,0,0-.09,2.4l2,2.91a2.52,2.52,0,0,1,.21,2.35c-.34.62-1.8,2.34-2.61,2.37l-3.51.14a2.15,2.15,0,0,0-1.88,1.49L684,1475.8a2.16,2.16,0,0,0,1.12,2.12l3.16,1.53a2.63,2.63,0,0,1,1.36,2.13s0,.41.09,1.37l0,.33c0,.36-.49,1-1.18,1.45l-3,1.88a2.18,2.18,0,0,0-.88,2.23l1.76,5.39a2.17,2.17,0,0,0,2,1.27l3.52-.25a2.5,2.5,0,0,1,2.15,1c.37.61,1.13,2.72.75,3.44l-1.63,3.11a2.14,2.14,0,0,0,.35,2.37l4.23,3.78a2.16,2.16,0,0,0,2.4.09l2.91-2a2.49,2.49,0,0,1,2.35-.22c.62.34,2.34,1.8,2.37,2.61l.14,3.52a2.15,2.15,0,0,0,1.49,1.87l5.56,1.16a2.18,2.18,0,0,0,2.12-1.12l1.53-3.17a2.67,2.67,0,0,1,2.14-1.36s.4,0,1.36-.08l.33,0c.36,0,1,.48,1.45,1.17l1.88,3a2.14,2.14,0,0,0,2.23.88l5.39-1.76a2.17,2.17,0,0,0,1.28-2l-.26-3.52a2.51,2.51,0,0,1,1-2.15c.6-.37,2.71-1.13,3.43-.75l3.11,1.64a2.15,2.15,0,0,0,2.37-.36l3.79-4.23a2.18,2.18,0,0,0,.09-2.4l-2-2.91a2.49,2.49,0,0,1-.22-2.35C746.49,1493.83,748,1492.11,748.77,1492.08Zm-29.11,12.46a24.2,24.2,0,1,1,24.19-24.19A24.23,24.23,0,0,1,719.66,1504.54Z" transform="translate(-683.99 -1444.68)"/></svg>