<svg id="Layer_1" data-name="Layer 1" xmlns="http://www.w3.org/2000/svg" viewBox="0 0 54.27 48.6"><defs><style>.cls-1{fill:#fff;}</style></defs><title>cart</title><path class="cls-1" d="M707,1473.23c.34,0,1.64-.19,1.81-.51l7.35-15.56a1,1,0,1,0-1.69-.9l-8.32,15.56a1,1,0,0,0,.4,1.3A1,1,0,0,0,707,1473.23Z" transform="translate(-692.33 -1455.75)"/><path class="cls-1" d="M731.94,1473.23a1.07,1.07,0,0,0,.46-.11,1,1,0,0,0,.39-1.3l-8.31-15.56a1,1,0,1,0-1.7.9l7.36,15.56C730.31,1473,731.6,1473.23,731.94,1473.23Z" transform="translate(-692.33 -1455.75)"/><path class="cls-1" d="M745.64,1471.31H693.29c-.53,0-1,.76-1,1.7s.43,1.71,1,1.71h1.49l6.7,27.64a2.14,2.14,0,0,0,2.13,2h31.72a2.13,2.13,0,0,0,2.12-2l6.71-27.64h1.48c.54,0,1-.77,1-1.71S746.18,1471.31,745.64,1471.31Zm-43.8,3.94h3l1.1,11.37h-2.75ZM704.6,1499l-1.09-9.38h2.7l.9,9.38Zm5.31-23.75h3l.49,11.37h-2.76Zm1.5,23.75-.6-9.38h2.7l.41,9.38Zm9.32,0h-2.52l-.09-9.38h2.7Zm.12-12.38h-2.76l-.11-11.37h3Zm6.68,12.38H725l.41-9.38h2.69Zm.78-12.38h-2.75l.49-11.37h3Zm6,12.38h-2.51l.9-9.38h2.7Zm1.44-12.38H733l1.1-11.37h3Z" transform="translate(-692.33 -1455.75)"/></svg>