<svg id="Layer_1" data-name="Layer 1" xmlns="http://www.w3.org/2000/svg" viewBox="0 0 151.23 120.62"><defs><style>.cls-1{fill:#fff;}</style></defs><title>double-arrow1</title><path class="cls-1" d="M792.82,1474.06a12,12,0,0,1,14.32.16l.15.12A7.19,7.19,0,0,1,810,1480a7.33,7.33,0,0,1-2.92,5.55c-21.73,17.66-43.83,35.13-65.72,52.68a1.21,1.21,0,0,1-.2.19,11.66,11.66,0,0,1-7.22,2.28,11.54,11.54,0,0,1-7.14-2.45l-.32-.27q-32.38-26.21-64.8-52.44a7.31,7.31,0,0,1-2.91-5.54,7.2,7.2,0,0,1,2.72-5.61l.19-.15a11.52,11.52,0,0,1,7.09-2.41,11.64,11.64,0,0,1,7.2,2.28l58.18,47.22,58.67-47.22Zm-2.46-51.77a12.05,12.05,0,0,1,14.3.18l.15.12a6.93,6.93,0,0,1-.2,11.16c-21.28,17.29-42.21,35.15-63.23,52.67l-.21.21a12.08,12.08,0,0,1-14.36-.17q-31.29-26.24-62.49-52.6l-.16-.12a7.32,7.32,0,0,1-2.89-5.54,7.19,7.19,0,0,1,2.71-5.61l.18-.15a12.06,12.06,0,0,1,14.29-.13l55.68,47.18,56.23-47.2Z" transform="translate(-658.77 -1420.03)"/></svg>