<svg id="Layer_1" data-name="Layer 1" xmlns="http://www.w3.org/2000/svg" viewBox="0 0 767.01 767.8"><defs><style>.cls-1{fill:#d4b05a;}</style></defs><title>kisspng-dragon-city-symbol-5b096746bac428.073343851527342918765_dark</title><path class="cls-1" d="M407.38.6c2.2.2,9.2.9,15.5,1.5,54.1,5.1,111.9,24.4,159.5,53.4a390,390,0,0,1,144.8,157.1c20.3,40.5,30.1,73.5,36.2,121.9,5.1,41.1,5.4,66.9.9,100C744.28,583.1,639.18,707,496,750.9c-15.4,4.8-23,6.1-35.6,6.1-26.2,0-51.6-7.2-70.4-20-17.6-11.9-33-31.6-41.2-52.7-3.3-8.4-3.4-8.5-4.5-5.7-3.4,8.2-4,24.8-1.2,36.4,3.5,14.7,15.4,32.6,29.1,43.8,3.4,2.8,7.3,6,8.7,7.2l2.5,2.1-13-.6c-57.5-2.7-109.2-15.9-158-40.3-32.4-16.2-67-40.6-93.6-66.1C53.78,599,13.08,517.3,2.18,427c-2.1-18-2.4-64.7-.4-82,7.5-66.1,28.6-123.7,65.2-177.6,24-35.4,60.5-72.4,95.7-97.1,53.8-37.7,111.8-59.9,177.7-67.9C352.58,1,398.28-.3,407.38.6Zm-57.5,58.9c-75.1,8-143,40.5-196.5,94-54.5,54.4-87.3,124.4-94.5,201-1.5,16.1-1.2,46.4.5,63.1,6.9,65.6,32.7,125.8,75.7,176.9,8,9.5,31.7,33.1,40.5,40.4,3.6,2.9,5.4,3.9,5.7,2.9,13.1-41.4,22.3-58.3,43.3-79.4,15.8-15.9,33.7-28.9,68.3-49.9,10.7-6.5,24.2-15,30-18.9,32.3-21.9,56.9-47.1,61.6-63.3,2.3-7.8,1.6-19.4-1.4-25.3-6.6-12.6-18.9-19-36.6-19-21.2,0-34.5,6.4-63.1,30.1-8.3,6.8-16.4,13.4-18,14.7-2.9,2.3-2.9,2.3-.5,1.8,18.4-4.2,37-5,45.5-2.1,9.4,3.3,15.6,8.8,19,16.9l1.5,3.5-4.8-4.8c-10.1-10.1-20.7-10.5-49.2-2.1-20.6,6.1-32.3,7.5-38,4.5-3-1.6-4.1-1.6-10.2-.5-3.7.7-6.8,1.7-6.8,2.2,0,1.8,4.1,4.8,8.2,5.9,5.5,1.5,14.3.7,28.8-2.7,15.3-3.5,26.6-3.7,33.6-.5,8.5,3.7,13.4,10.5,13.4,18.5v3.1l-1.9-3c-4.3-7.1-11.2-10.5-18.6-9.1-2,.4-10.2,4-18.3,8.1-17.4,8.8-23.8,11.1-32.9,12-8.1.8-18.6-1.3-24.8-5-5.5-3.2-12.2-10.6-14.7-16.1a40.11,40.11,0,0,1-2.5-10.2c-.6-5.1-1-6.1-4.9-9.5a31,31,0,0,1-6.5-8.5c-4.7-9.5-2.3-25.8,5.5-38.2l3.4-5.4,1.1,4c3.9,14.6,16,18.8,35.2,12.4,8.1-2.7,20.9-8.5,20.9-9.4,0-.2-1.4-3-3-6.1-3-5.7-3.7-11-2.2-16.2.7-2.2.8-2.1,6.2,1.4a130.32,130.32,0,0,0,11.7,6.4l6.3,2.9,5-3.1c5.4-3.3,5.8-4,3.6-5.9-2.9-2.3-4.9-9.7-4.3-15.6.3-3.1.8-5.9,1.1-6.1s3.8,1.7,7.8,4.4c14.5,10,18,11,26.8,8.2,3.6-1.1,7.1-2.2,7.7-2.4.9-.3.6-1.5-1.1-4a23.37,23.37,0,0,1-3.1-7.5c-.7-4.3.2-11.7,1.5-12.5.4-.2,2.9,1.2,5.6,3.2,7.3,5.6,19,11.3,23.1,11.3,3.3,0,3.5-.1,2.8-2.8-1.2-5-6.9-13.3-11.5-16.7a33.33,33.33,0,0,0-20.4-6.5h-6.3l-4.2,5.9c-5.3,7.6-8.1,13.7-8.1,17.8,0,1.8-.4,3.3-.9,3.3s-2.8-4.6-5.1-10.3a121.2,121.2,0,0,0-5-11.1c-.5-.4-4.5.4-9,1.9-7.9,2.6-8.3,2.9-10.2,7.1-2.9,6.6-4.7,16.7-3.8,20.9.4,1.9.4,3.5,0,3.5-.6,0-9.6-10.9-14.4-17.5-1.4-1.9-1.4-1.9-5.7,0-5.7,2.6-12.9,9.9-15.9,16-2,4.1-2.5,6.5-2.5,13.8v8.9l-3-.6a30.29,30.29,0,0,1-8-4.1c-7.6-5.2-12.2-6.8-19.6-6.9a23.71,23.71,0,0,0-12.3,2.8c-7.6,3.7-10.9,8.6-11,16.2-.1,2.9-.5,5.4-1,5.4-2.2,0-11.1-6.7-15.7-11.9-5.4-6-12.9-20.4-14.8-28.3-3.6-15.1,1.7-31.3,12.3-38.2,7.7-5,17.7-2.7,25.5,5.7l2.3,2.6,2.5-3c3.3-3.9,6.8-5.6,16.1-8,16.6-4.3,34.6-15.5,45.2-28.1,6.4-7.6,15.3-23.5,20.1-35.8,7-18.2,16.6-27.4,35.4-34.1l5-1.7.7-7c1.3-13,7.7-26.5,17.7-37.4,12.6-13.8,30.8-23,54.8-27.9,9.8-2,13.6-2.2,40.3-2.1,40.6.2,54.2-1.3,66.8-7.4,9.9-4.8,15.3-12.3,17-23.5l.9-5.4,1.2,4.5c1.8,6.2.7,16.8-2.3,22.8-7.3,14.4-23.4,24.9-49.8,32.6-4.6,1.3-19.8,4.7-33.8,7.5-34.8,7.1-50.4,13.5-61.6,25.3-7.1,7.5-9.2,11.7-3.1,6,10.8-9.8,25.3-17.2,42.4-21.4,8.2-2,11.4-2.2,46.3-2.3,42.3-.2,48.4-.9,60.5-6.9,8.4-4.2,15.2-9.9,19.5-16.3l3.2-4.8-.7,3.5c-2.6,12.7-14.3,25.9-29.6,33.4-13.8,6.7-18.2,7.6-44.4,8.7-26.9,1-34,2.3-46.2,8.4l-8.8,4.4h4.2c11.4.2,30.7,3.9,43.3,8.4,10.3,3.6,16.6,6.7,24.3,11.9l5.8,3.9,6.2-2a80.94,80.94,0,0,1,27.2-4.3c18.3.2,31.4,6.4,43.3,20.6,4,4.8,15,25.2,14,26.1-.2.2-3.3-.8-6.8-2.2-13.2-5.4-20.3-4.1-31,5.5l-5.5,4.9,4.4,13.4c4.8,14.4,6.1,16.5,18.1,29.2,6.5,6.9,14.8,12.7,18.4,12.7,1.8,0,1.8.2-.5,2.6-3.6,4-11.6,7.4-17.3,7.4h-4.8l.4,9.8c.3,8.7.8,10.7,3.6,16.5a36.72,36.72,0,0,0,16.8,16.7c2.4,1.2,4.4,2.8,4.4,3.5,0,2.3-6.8,7.4-12,8.9-10,3-19.6,3-27.4,0-1.5-.6-1.5-.2.3,4.6,4.4,11.6,16.1,25.2,28,32.5,3.3,2.1,6.1,4.1,6.1,4.6,0,1.5-5.5,4.7-10.9,6.3-6.8,2-21.1,2.1-27.5.2a34.84,34.84,0,0,1-8.7-4.1l-4-2.6-1.6,3.8c-3.4,8.1-1.1,23.9,5.4,36.7l2.5,4.9-3.3-.7a37.59,37.59,0,0,1-7.7-2.7c-2.4-1.2-4.5-2-4.6-1.8-.6.7-8.4,37.2-9.7,45.4-.7,4.4-1.3,15.2-1.3,24,.1,12.9.5,17.5,2.2,23.6,2.7,9.9,7.6,19.9,12.5,25.5,2.1,2.4,3.4,4.4,2.8,4.4s-4.3-1.9-8.2-4.3c-30-17.9-46.4-43.5-44.5-69.7.3-4.7.9-9.9,1.2-11.5.6-2.9.5-2.8-3,1.5-4.7,5.9-12.2,21-14.1,28.5-8.2,32.1,7,62.1,44,87.4,5.5,3.8,14,9,18.8,11.6s8.6,5,8.3,5.2-5.1,0-10.8-.6c-29-3.3-53.4-11.3-70.9-23.1a105.71,105.71,0,0,1-13-11.8c-12.1-12.8-17.5-25.9-18.8-45.2l-.6-9.5-4.8,10.3c-12.6,26.7-13.5,52.8-2.6,74.5,9.4,18.8,25.8,34.1,47.3,44.3,14.9,7,16.3,7.2,30.2,4,26.8-6.3,60.3-19.1,83.6-32.1a330.38,330.38,0,0,0,137.3-145.9c14.8-30.9,24-62.1,29.1-98.6,2.6-17.7,2.6-64.2.1-82q-12.75-90.45-66.8-159.5A327.67,327.67,0,0,0,415.88,59.1C401.88,57.7,364.68,57.9,349.88,59.5Zm-86.1,210.7c-8.1,16.1-20.1,31.3-29,36.7l-3.4,2.1h3c4.5,0,14.2-2.7,20.2-5.6a29.21,29.21,0,0,0,16.3-25.9c0-4.1-1.9-15.5-2.6-15.5C268.08,262,266.08,265.7,263.78,270.2Z" transform="translate(-0.44 -0.3)"/></svg>