<?xml version="1.0" encoding="utf-8"?>
<!-- Generator: Adobe Illustrator 24.0.1, SVG Export Plug-In . SVG Version: 6.00 Build 0)  -->
<svg version="1.1" id="Layer_1" xmlns="http://www.w3.org/2000/svg" xmlns:xlink="http://www.w3.org/1999/xlink" x="0px" y="0px"
	 viewBox="0 0 768 768" style="enable-background:new 0 0 768 768;" xml:space="preserve">
<style type="text/css">
	.st0{fill:#D4B05A;}
</style>
<g transform="translate(0.000000,768.000000) scale(0.100000,-0.100000)">
	<path class="st0" d="M4073.8,7674c22-2,92-9,155-15c541-51,1119-244,1595-534c616-375,1126-928,1448-1571c203-405,301-735,362-1219
		c51-411,54-669,9-1000c-200-1486-1251-2725-2683-3164c-154-48-230-61-356-61c-262,0-516,72-704,200c-176,119-330,316-412,527
		c-33,84-34,85-45,57c-34-82-40-248-12-364c35-147,154-326,291-438c34-28,73-60,87-72l25-21l-130,6c-575,27-1092,159-1580,403
		c-324,162-670,406-936,661c-650,621-1057,1438-1166,2341c-21,180-24,647-4,820c75,661,286,1237,652,1776c240,354,605,724,957,971
		c538,377,1118,599,1777,679C3525.8,7670,3982.8,7683,4073.8,7674z M3498.8,7085c-751-80-1430-405-1965-940
		c-545-544-873-1244-945-2010c-15-161-12-464,5-631c69-656,327-1258,757-1769c80-95,317-331,405-404c36-29,54-39,57-29
		c131,414,223,583,433,794c158,159,337,289,683,499c107,65,242,150,300,189c323,219,569,471,616,633c23,78,16,194-14,253
		c-66,126-189,190-366,190c-212,0-345-64-631-301c-83-68-164-134-180-147c-29-23-29-23-5-18c184,42,370,50,455,21
		c94-33,156-88,190-169l15-35l-48,48c-101,101-207,105-492,21c-206-61-323-75-380-45c-30,16-41,16-102,5c-37-7-68-17-68-22
		c0-18,41-48,82-59c55-15,143-7,288,27c153,35,266,37,336,5c85-37,134-105,134-185v-31l-19,30c-43,71-112,105-186,91
		c-20-4-102-40-183-81c-174-88-238-111-329-120c-81-8-186,13-248,50c-55,32-122,106-147,161c-11,25-22,71-25,102c-6,51-10,61-49,95
		c-23,20-53,59-65,85c-47,95-23,258,55,382l34,54l11-40c39-146,160-188,352-124c81,27,209,85,209,94c0,2-14,30-30,61
		c-30,57-37,110-22,162c7,22,8,21,62-14c30-19,83-48,117-64l63-29l50,31c54,33,58,40,36,59c-29,23-49,97-43,156c3,31,8,59,11,61
		c3,3,38-17,78-44c145-100,180-110,268-82c36,11,71,22,77,24c9,3,6,15-11,40c-13,19-27,53-31,75c-7,43,2,117,15,125c4,2,29-12,56-32
		c73-56,190-113,231-113c33,0,35,1,28,28c-12,50-69,133-115,167c-60,44-127,65-204,65h-63l-42-59c-53-76-81-137-81-178
		c0-18-4-33-9-33s-28,46-51,103c-23,56-46,106-50,111c-5,4-45-4-90-19c-79-26-83-29-102-71c-29-66-47-167-38-209c4-19,4-35,0-35
		c-6,0-96,109-144,175c-14,19-14,19-57,0c-57-26-129-99-159-160c-20-41-25-65-25-138v-89l-30,6c-17,4-53,22-80,41
		c-76,52-122,68-196,69c-52,0-77-6-123-28c-76-37-109-86-110-162c-1-29-5-54-10-54c-22,0-111,67-157,119c-54,60-129,204-148,283
		c-36,151,17,313,123,382c77,50,177,27,255-57l23-26l25,30c33,39,68,56,161,80c166,43,346,155,452,281c64,76,153,235,201,358
		c70,182,166,274,354,341l50,17l7,70c13,130,77,265,177,374c126,138,308,230,548,279c98,20,136,22,403,21c406-2,542,13,668,74
		c99,48,153,123,170,235l9,54l12-45c18-62,7-168-23-228c-73-144-234-249-498-326c-46-13-198-47-338-75c-348-71-504-135-616-253
		c-71-75-92-117-31-60c108,98,253,172,424,214c82,20,114,22,463,23c423,2,484,9,605,69c84,42,152,99,195,163l32,48l-7-35
		c-26-127-143-259-296-334c-138-67-182-76-444-87c-269-10-340-23-462-84l-88-44h42c114-2,307-39,433-84c103-36,166-67,243-119l58-39
		l62,20c98,31,175,44,272,43c183-2,314-64,433-206c40-48,150-252,140-261c-2-2-33,8-68,22c-132,54-203,41-310-55l-55-49l44-134
		c48-144,61-165,181-292c65-69,148-127,184-127c18,0,18-2-5-26c-36-40-116-74-173-74h-48l4-98c3-87,8-107,36-165
		c36-72,96-133,168-167c24-12,44-28,44-35c0-23-68-74-120-89c-100-30-196-30-274,0c-15,6-15,2,3-46c44-116,161-252,280-325
		c33-21,61-41,61-46c0-15-55-47-109-63c-68-20-211-21-275-2c-27,8-66,26-87,41l-40,26l-16-38c-34-81-11-239,54-367l25-49l-33,7
		c-19,3-53,16-77,27c-24,12-45,20-46,18c-6-7-84-372-97-454c-7-44-13-152-13-240c1-129,5-175,22-236c27-99,76-199,125-255
		c21-24,34-44,28-44s-43,19-82,43c-300,179-464,435-445,697c3,47,9,99,12,115c6,29,5,28-30-15c-47-59-122-210-141-285
		c-82-321,70-621,440-874c55-38,140-90,188-116s86-50,83-52c-3-3-51,0-108,6c-290,33-534,113-709,231c-30,21-89,74-130,118
		c-121,128-175,259-188,452l-6,95l-48-103c-126-267-135-528-26-745c94-188,258-341,473-443c149-70,163-72,302-40
		c268,63,603,191,836,321c598,333,1081,846,1373,1459c148,309,240,621,291,986c26,177,26,642,1,820c-85,603-307,1134-668,1595
		c-553,706-1358,1151-2249,1244C4018.8,7103,3646.8,7101,3498.8,7085z M2637.8,4978c-81-161-201-313-290-367l-34-21h30
		c45,0,142,27,202,56c98,47,163,151,163,259c0,41-19,155-26,155C2680.8,5060,2660.8,5023,2637.8,4978z"/>
</g>
</svg>
