<?xml version="1.0" encoding="utf-8"?>
<!-- Generator: Adobe Illustrator 24.0.1, SVG Export Plug-In . SVG Version: 6.00 Build 0)  -->
<svg version="1.1" id="Layer_1" xmlns="http://www.w3.org/2000/svg" xmlns:xlink="http://www.w3.org/1999/xlink" x="0px" y="0px"
	 viewBox="0 0 29.3 37.7" style="enable-background:new 0 0 29.3 37.7;" xml:space="preserve">
<style type="text/css">
	.st0{fill:#FFFFFF;}
</style>
<title>location</title>
<path class="st0" d="M14.7,37.7L14.7,37.7c-0.4,0-0.7-0.1-1-0.4C13.1,36.7,0,22.5,0,14.7C0.2,6.6,6.9,0.2,15,0.4
	c7.8,0.2,14.1,6.5,14.3,14.3c0,7.8-13.1,22-13.7,22.6C15.3,37.5,15,37.7,14.7,37.7z M14.7,2.6c-6.6,0-12,5.4-12,12
	c0,5.2,8,15.2,12,19.8c4.1-4.6,12-14.6,12-19.8C26.6,8,21.3,2.6,14.7,2.6z"/>
<path class="st0" d="M14.7,20.6c-3.6,0-6.6-3-6.6-6.6c0-3.6,3-6.6,6.6-6.6c3.6,0,6.6,3,6.6,6.6C21.3,17.7,18.3,20.6,14.7,20.6z
	 M14.7,10c-2.2,0-4,1.8-4,4s1.8,4,4,4s4-1.8,4-4S16.9,10,14.7,10z"/>
</svg>
