<svg id="Layer_1" data-name="Layer 1" xmlns="http://www.w3.org/2000/svg" viewBox="0 0 35.38 35.38"><defs><style>.cls-1{fill:red;}.cls-2{fill:#fff;}</style></defs><title>youtube</title><circle class="cls-1" cx="17.69" cy="17.69" r="17.69"/><path class="cls-2" d="M728.68,1486.47a4.25,4.25,0,0,0-4.24-4.25H713.57a4.25,4.25,0,0,0-4.24,4.25v5.06a4.25,4.25,0,0,0,4.24,4.25h10.87a4.25,4.25,0,0,0,4.24-4.25Zm-6.38,2.91-4.88,2.41c-.19.1-.84,0-.84-.25v-5c0-.22.66-.36.85-.25l4.66,2.54C722.29,1489,722.49,1489.27,722.3,1489.38Z" transform="translate(-701.52 -1471.31)"/></svg>